<svg width="32" height="32" viewBox="0 0 32 32" fill="none" xmlns="http://www.w3.org/2000/svg">
  <!-- Background circle with gradient -->
  <circle cx="16" cy="16" r="16" fill="url(#gradient1)"/>
  
  <!-- Building 1 (tallest) -->
  <rect x="6" y="12" width="4" height="16" fill="white" rx="1"/>
  <rect x="7" y="14" width="2" height="2" fill="#0ea5e9"/>
  <rect x="7" y="17" width="2" height="2" fill="#0ea5e9"/>
  <rect x="7" y="20" width="2" height="2" fill="#0ea5e9"/>
  <rect x="7" y="23" width="2" height="2" fill="#0ea5e9"/>
  
  <!-- Building 2 (medium) -->
  <rect x="12" y="16" width="4" height="12" fill="white" rx="1"/>
  <rect x="13" y="18" width="2" height="2" fill="#0ea5e9"/>
  <rect x="13" y="21" width="2" height="2" fill="#0ea5e9"/>
  <rect x="13" y="24" width="2" height="2" fill="#0ea5e9"/>
  
  <!-- Building 3 (shortest) -->
  <rect x="18" y="20" width="4" height="8" fill="white" rx="1"/>
  <rect x="19" y="22" width="2" height="2" fill="#0ea5e9"/>
  <rect x="19" y="25" width="2" height="2" fill="#0ea5e9"/>
  
  <!-- AI sparkle/star -->
  <path d="M24 8L25.5 9.5L27 8L25.5 6.5L24 8Z" fill="white"/>
  <path d="M26 6L26.5 6.5L27 6L26.5 5.5L26 6Z" fill="#0ea5e9"/>
  
  <!-- Gradient definitions -->
  <defs>
    <linearGradient id="gradient1" x1="0%" y1="0%" x2="100%" y2="100%">
      <stop offset="0%" style="stop-color:#0ea5e9;stop-opacity:1" />
      <stop offset="100%" style="stop-color:#0284c7;stop-opacity:1" />
    </linearGradient>
  </defs>
</svg>
